<svg width="270" height="270" viewBox="0 0 270 270" version="1.1" xmlns="http://www.w3.org/2000/svg" xmlns:xlink="http://www.w3.org/1999/xlink">
<title>spatialIndexWebapp</title>
<desc>Created using Figma</desc>
<g id="Canvas" transform="translate(-52229 -805)">
<clipPath id="clip-0" clip-rule="evenodd">
<path d="M 52229 805L 52499 805L 52499 1075L 52229 1075L 52229 805Z" fill="#FFFFFF"/>
</clipPath>
<g id="spatialIndexWebapp" clip-path="url(#clip-0)">
<g id="Ellipse 2">
<use xlink:href="#path0_fill" transform="matrix(0.258819 0.965926 -0.965926 0.258819 52436 814)" fill="url(#paint0_linear)"/>
</g>
<g id="Group 5">
<g id="Ellipse 3">
<mask id="mask0_outline_ins">
<use xlink:href="#path1_fill" fill="white" transform="translate(52286.2 862)"/>
</mask>
<g mask="url(#mask0_outline_ins)">
<use xlink:href="#path2_stroke_2x" transform="translate(52286.2 862)" fill="#94C2FF"/>
</g>
</g>
<g id="Ellipse 3.1">
<mask id="mask1_outline_ins">
<use xlink:href="#path3_fill" fill="white" transform="translate(52335.2 862)"/>
</mask>
<g mask="url(#mask1_outline_ins)">
<use xlink:href="#path4_stroke_2x" transform="translate(52335.2 862)" fill="#94C2FF"/>
</g>
</g>
<g id="Ellipse 3.2">
<mask id="mask2_outline_ins">
<use xlink:href="#path5_fill" fill="white" transform="translate(52303.2 862)"/>
</mask>
<g mask="url(#mask2_outline_ins)">
<use xlink:href="#path6_stroke_2x" transform="translate(52303.2 862)" fill="#94C2FF"/>
</g>
</g>
<g id="Line">
<use xlink:href="#path7_stroke" transform="translate(52287.2 940.531)" fill="#94C2FF"/>
</g>
<g id="Line">
<use xlink:href="#path8_stroke" transform="matrix(1 -2.44929e-16 2.44929e-16 1 52303.2 897.02)" fill="#94C2FF"/>
</g>
<g id="Line">
<use xlink:href="#path8_stroke" transform="matrix(1 -2.44929e-16 2.44929e-16 1 52303.2 986.163)" fill="#94C2FF"/>
</g>
</g>
<g id="Rectangle 21.2">
<use xlink:href="#path9_fill" transform="translate(52233 925.818)" fill="#F2887C"/>
</g>
<g id="Ellipse 3">
<use xlink:href="#path1_fill" transform="translate(52286.2 862)" fill="url(#paint8_radial)"/>
</g>
<g id="Rectangle 21.3">
<use xlink:href="#path10_fill" transform="translate(52256.6 883.273)" fill="#1A6FDF"/>
</g>
<g id="Rectangle 21.4">
<use xlink:href="#path11_fill" transform="translate(52394.9 961.273)" fill="#1A6FDF"/>
</g>
<g id="Rectangle 21">
<use xlink:href="#path12_fill" transform="translate(52377.2 901)" fill="#F2887C"/>
</g>
<g id="Vector">
<use xlink:href="#path13_fill" transform="translate(52333.5 886.818)" fill="#579EFF"/>
</g>
<g id="Vector">
<use xlink:href="#path13_fill" transform="translate(52397.3 963.636)" fill="#579EFF"/>
</g>
<g id="Vector">
<use xlink:href="#path14_fill" transform="translate(52338.2 891.545)" fill="#FFFFFF"/>
</g>
<g id="Vector">
<use xlink:href="#path14_fill" transform="translate(52402 968.364)" fill="#FFFFFF"/>
</g>
<g id="Rectangle 21.5">
<use xlink:href="#path10_fill" transform="matrix(-1 1.22465e-16 -1.22465e-16 -1 52365.4 1018)" fill="#1A6FDF"/>
</g>
<g id="Vector">
<use xlink:href="#path13_fill" transform="matrix(-1 1.22465e-16 -1.22465e-16 -1 52361.8 1014.45)" fill="#579EFF"/>
</g>
<g id="Vector">
<use xlink:href="#path14_fill" transform="matrix(-1 1.22465e-16 -1.22465e-16 -1 52357.1 1009.73)" fill="#FFFFFF"/>
</g>
<g id="Vector">
<use xlink:href="#path13_fill" transform="translate(52295.6 929.364)" fill="#FFA3A1"/>
</g>
<g id="Vector">
<use xlink:href="#path13_fill" transform="translate(52380.7 904.545)" fill="#FFA3A1"/>
</g>
<g id="Vector">
<use xlink:href="#path14_fill" transform="translate(52300.4 934.091)" fill="#FFFFFF"/>
</g>
<g id="Group 3.1">
<g id="Group 2">
<g id="Group">
<g id="Vector">
<use xlink:href="#path15_fill" transform="matrix(-0.579964 -0.804362 0.783159 -0.636081 52387.4 920.447)" fill="#FFFFFF"/>
</g>
<g id="Vector">
<use xlink:href="#path16_fill" transform="matrix(-0.579964 -0.804362 0.783159 -0.636081 52388.2 917.455)" fill="#FFFFFF"/>
</g>
</g>
</g>
</g>
<g id="0x91fe321...">
<use xlink:href="#path17_fill" transform="translate(52267.3 883.273)" fill="#FFFFFF"/>
</g>
<g id="0x91033a1...">
<use xlink:href="#path18_fill" transform="translate(52276.7 993.182)" fill="#FFFFFF"/>
</g>
<g id="0x12efa563...">
<use xlink:href="#path19_fill" transform="translate(52419.7 961.273)" fill="#FFFFFF"/>
</g>
<g id="0x02fe...">
<use xlink:href="#path20_fill" transform="translate(52242.5 925.818)" fill="#FFFFFF"/>
</g>
<g id="0x42fea2...">
<use xlink:href="#path21_fill" transform="translate(52403.2 901)" fill="#FFFFFF"/>
</g>
</g>
</g>
<defs>
<linearGradient id="paint0_linear" x1="0" y1="0" x2="1" y2="0" gradientUnits="userSpaceOnUse" gradientTransform="matrix(139.4 149.24 -149.24 139.4 107.01 -40.59)">
<stop offset="0" stop-color="#2E2E2E"/>
<stop offset="1" stop-color="#141414"/>
</linearGradient>
<radialGradient id="paint8_radial" cx="0.5" cy="0.5" r="0.5" gradientUnits="userSpaceOnUse" gradientTransform="matrix(-66.1818 209.182 -209.182 -66.1818 262.955 -41.9545)">
<stop offset="0" stop-color="#0961D0"/>
<stop offset="1" stop-color="#0863D7" stop-opacity="0"/>
</radialGradient>
<path id="path0_fill" d="M 205 102.5C 205 159.109 159.109 205 102.5 205C 45.8908 205 0 159.109 0 102.5C 0 45.8908 45.8908 0 102.5 0C 159.109 0 205 45.8908 205 102.5Z"/>
<path id="path1_fill" d="M 156 78C 156 121.078 121.078 156 78 156C 34.9218 156 0 121.078 0 78C 0 34.9218 34.9218 0 78 0C 121.078 0 156 34.9218 156 78Z"/>
<path id="path2_stroke_2x" d="M 153 78C 153 119.421 119.421 153 78 153L 78 159C 122.735 159 159 122.735 159 78L 153 78ZM 78 153C 36.5786 153 3 119.421 3 78L -3 78C -3 122.735 33.2649 159 78 159L 78 153ZM 3 78C 3 36.5786 36.5786 3 78 3L 78 -3C 33.2649 -3 -3 33.2649 -3 78L 3 78ZM 78 3C 119.421 3 153 36.5786 153 78L 159 78C 159 33.2649 122.735 -3 78 -3L 78 3Z"/>
<path id="path3_fill" d="M 57.9429 78C 57.9429 121.078 44.9719 156 28.9714 156C 12.971 156 0 121.078 0 78C 0 34.9218 12.971 0 28.9714 0C 44.9719 0 57.9429 34.9218 57.9429 78Z"/>
<path id="path4_stroke_2x" d="M 54.9429 78C 54.953 99.2922 51.8011 118.267 46.645 132.11C 44.1064 138.967 41.2562 144.204 37.9942 147.891C 34.8509 151.47 31.794 153 28.9714 153L 28.9714 159C 34.1491 159 38.7137 156.165 42.5026 151.85C 46.1728 147.643 49.5654 141.457 52.2696 134.199C 57.5991 119.811 60.9327 99.786 60.9429 78L 54.9429 78ZM 28.9714 153C 26.1488 153 23.0919 151.47 19.9486 147.891C 16.6866 144.204 13.8364 138.967 11.2978 132.11C 6.14174 118.267 2.98982 99.2922 3 78L -3 78C -2.98982 99.786 0.343731 119.811 5.67326 134.199C 8.37742 141.457 11.7701 147.643 15.4402 151.85C 19.2291 156.165 23.7938 159 28.9714 159L 28.9714 153ZM 3 78C 2.98982 56.7078 6.14174 37.7327 11.2978 23.8902C 13.8364 17.0329 16.6866 11.7962 19.9486 8.10917C 23.0919 4.52975 26.1488 3 28.9714 3L 28.9714 -3C 23.7938 -3 19.2291 -0.164528 15.4402 4.15009C 11.7701 8.35708 8.37742 14.5432 5.67326 21.8011C 0.343731 36.189 -2.98982 56.214 -3 78L 3 78ZM 28.9714 3C 31.794 3 34.8509 4.52975 37.9942 8.10917C 41.2562 11.7962 44.1064 17.0329 46.645 23.8902C 51.8011 37.7327 54.953 56.7078 54.9429 78L 60.9429 78C 60.9327 56.214 57.5991 36.189 52.2696 21.8011C 49.5654 14.5432 46.1728 8.35708 42.5026 4.15009C 38.7137 -0.164528 34.1491 -3 28.9714 -3L 28.9714 3Z"/>
<path id="path5_fill" d="M 122.041 78C 122.041 121.078 94.721 156 61.0204 156C 27.3198 156 0 121.078 0 78C 0 34.9218 27.3198 0 61.0204 0C 94.721 0 122.041 34.9218 122.041 78Z"/>
<path id="path6_stroke_2x" d="M 119.041 78C 119.041 120.149 92.4201 153 61.0204 153L 61.0204 159C 97.022 159 125.041 122.008 125.041 78L 119.041 78ZM 61.0204 153C 29.6207 153 3 120.149 3 78L -3 78C -3 122.008 25.0188 159 61.0204 159L 61.0204 153ZM 3 78C 3 35.8511 29.6207 3 61.0204 3L 61.0204 -3C 25.0188 -3 -3 33.9925 -3 78L 3 78ZM 61.0204 3C 92.4201 3 119.041 35.8511 119.041 78L 125.041 78C 125.041 33.9925 97.022 -3 61.0204 -3L 61.0204 3Z"/>
<path id="path7_stroke" d="M 0 -2.22045e-16L 152.816 -2.22045e-16L 152.816 -3L 0 -3L 0 -2.22045e-16Z"/>
<path id="path8_stroke" d="M 0 0L 122.041 0L 122.041 -3L 0 -3L 0 0Z"/>
<path id="path9_fill" d="M 0 12.4091C 0 5.55574 5.55574 0 12.4091 0L 71.5 0C 78.3533 0 83.9091 5.55574 83.9091 12.4091L 83.9091 12.4091C 83.9091 19.2624 78.3533 24.8182 71.5 24.8182L 12.4091 24.8182C 5.55574 24.8182 0 19.2624 0 12.4091L 0 12.4091Z"/>
<path id="path10_fill" d="M 0 12.4091C 0 5.55574 5.55574 0 12.4091 0L 85.6818 0C 92.5352 0 98.0909 5.55574 98.0909 12.4091L 98.0909 12.4091C 98.0909 19.2624 92.5352 24.8182 85.6818 24.8182L 12.4091 24.8182C 5.55574 24.8182 0 19.2624 0 12.4091L 0 12.4091Z"/>
<path id="path11_fill" d="M 0 11.2273C 0 5.02662 5.02662 0 11.2273 0L 86.8636 0C 93.0643 0 98.0909 5.02662 98.0909 11.2273L 98.0909 11.2273C 98.0909 17.4279 93.0643 22.4545 86.8636 22.4545L 11.2273 22.4545C 5.02662 22.4545 0 17.4279 0 11.2273L 0 11.2273Z"/>
<path id="path12_fill" d="M 0 12.4091C 0 5.55574 5.55574 0 12.4091 0L 77.4091 0C 84.2624 0 89.8182 5.55574 89.8182 12.4091L 89.8182 12.4091C 89.8182 19.2624 84.2624 24.8182 77.4091 24.8182L 12.4091 24.8182C 5.55574 24.8182 0 19.2624 0 12.4091L 0 12.4091Z"/>
<path id="path13_fill" d="M 17.7273 8.86364C 17.7273 13.7589 13.7589 17.7273 8.86364 17.7273C 3.96838 17.7273 0 13.7589 0 8.86364C 0 3.96838 3.96838 0 8.86364 0C 13.7589 0 17.7273 3.96838 17.7273 8.86364Z"/>
<path id="path14_fill" d="M 8.27273 4.13636C 8.27273 6.42082 6.42082 8.27273 4.13636 8.27273C 1.85191 8.27273 0 6.42082 0 4.13636C 0 1.85191 1.85191 0 4.13636 0C 6.42082 0 8.27273 1.85191 8.27273 4.13636Z"/>
<path id="path15_fill" d="M 4.04515 0.78608L 4.81021 0.51265C 4.69153 0.204492 4.38634 0 4.04515 0C 3.70395 0 3.39876 0.204492 3.28008 0.51265L 4.04515 0.78608ZM 0.81605 9.17031L 0.0509899 8.89688C -0.0649303 9.19787 0.0207908 9.53651 0.267522 9.75231C 0.514255 9.9681 0.872414 10.0177 1.17224 9.87755L 0.81605 9.17031ZM 4.04515 7.66115L 4.40134 6.95391C 4.17641 6.8488 3.91388 6.8488 3.68895 6.95391L 4.04515 7.66115ZM 7.27424 9.17031L 6.91805 9.87755C 7.21787 10.0177 7.57604 9.9681 7.82277 9.75231C 8.0695 9.53651 8.15521 9.19787 8.03931 8.89688L 7.27424 9.17031ZM 3.28008 0.51265L 0.0509899 8.89688L 1.58111 9.44374L 4.81021 1.05951L 3.28008 0.51265ZM 1.17224 9.87755L 4.40134 8.3684L 3.68895 6.95391L 0.459857 8.46308L 1.17224 9.87755ZM 3.28008 1.05951L 6.50918 9.44374L 8.03931 8.89688L 4.81021 0.51265L 3.28008 1.05951ZM 7.63043 8.46308L 4.40134 6.95391L 3.68895 8.3684L 6.91805 9.87755L 7.63043 8.46308Z"/>
<path id="path16_fill" d="M 0 5.64647L 2.17468 0L 4.34936 5.64647L 2.17468 4.63011L 0 5.64647Z"/>
<path id="path17_fill" d="M 4.84517 12.152C 4.84517 10.2344 3.9375 9.36506 2.66548 9.36506C 1.39347 9.36506 0.473011 10.2344 0.473011 12.152L 0.473011 13.1875C 0.473011 15.1179 1.40625 16.0895 2.67827 16.0895C 3.95028 16.0895 4.84517 15.1179 4.84517 13.1875L 4.84517 12.152ZM 4.05256 13.3281C 4.05256 14.5554 3.46449 15.3864 2.67827 15.3864C 1.89205 15.3864 1.26562 14.5554 1.26562 13.3281L 1.26562 12.0114C 1.26562 10.7713 1.87926 10.0682 2.66548 10.0682C 3.4517 10.0682 4.05256 10.7713 4.05256 12.0114L 4.05256 13.3281ZM 6.45676 11.0909L 5.58745 11.0909L 7.14711 13.5455L 5.58745 16L 6.45676 16L 7.6329 14.0952L 8.80904 16L 9.67836 16L 8.09313 13.5455L 9.67836 11.0909L 8.80904 11.0909L 7.6329 13.098L 6.45676 11.0909ZM 11.405 14.37L 10.6507 14.37C 10.8841 15.4822 11.4721 16.0959 12.5524 16.0959C 14.0066 16.0959 14.7544 14.8271 14.7544 12.804L 14.7544 12.5866C 14.7544 10.4901 14.0961 9.37145 12.6259 9.37145C 11.29 9.37145 10.5485 10.3175 10.5485 11.5192C 10.5485 12.5675 11.1333 13.5774 12.4565 13.5774C 12.987 13.5774 13.5719 13.4016 13.9746 12.9574C 13.9299 14.9421 13.1916 15.3928 12.5428 15.3928C 11.7725 15.3928 11.5552 14.8175 11.405 14.37ZM 11.3027 11.4808C 11.3027 10.6371 11.8525 10.0618 12.562 10.0618C 13.2619 10.0618 13.8979 10.538 13.9107 11.516C 13.8979 12.3469 13.2875 12.8743 12.5364 12.8743C 11.6319 12.8743 11.3027 12.2223 11.3027 11.4808ZM 18.1542 9.45455L 18.0264 9.45455L 15.7636 10.4134L 15.7636 11.1932L 17.3999 10.5156L 17.3999 16L 18.1542 16L 18.1542 9.45455ZM 21.1928 16L 21.1928 11.794L 22.2795 11.794L 22.2923 11.0909L 21.1928 11.0909L 21.1928 10.7585C 21.1928 10.1832 21.717 10.0554 21.9599 10.0554C 22.19 10.0554 22.2028 10.0682 22.305 10.081L 22.305 9.41619C 22.2283 9.39062 22.0877 9.36506 21.9087 9.36506C 21.1033 9.36506 20.4386 9.86364 20.4386 10.7585L 20.4386 11.0909L 19.646 11.0909L 19.646 11.794L 20.4386 11.794L 20.4386 16L 21.1928 16ZM 25.0968 16.1023C 26.0811 16.1023 26.7203 15.642 27.0016 14.9901L 26.3113 14.6832C 26.1067 15.1435 25.6976 15.4247 25.0968 15.4247C 24.2562 15.4247 23.7161 14.8015 23.617 13.8651L 27.1422 13.8651L 27.1422 13.5455C 27.1422 11.7429 26.2473 11.027 25.0201 11.027C 23.7033 11.027 22.8468 12.0753 22.8468 13.5455C 22.8468 15.054 23.6905 16.1023 25.0968 16.1023ZM 25.0328 11.7045C 25.8894 11.7045 26.4135 12.2415 26.4135 13.2131L 23.6202 13.2131C 23.7257 12.3182 24.269 11.7045 25.0328 11.7045ZM 29.7278 13.0469L 30.0985 13.0469C 30.8912 13.0469 31.4664 13.4432 31.4664 14.223C 31.4664 15.0156 30.8784 15.4119 30.1497 15.4119C 29.421 15.4119 29.0119 15.0156 29.0119 14.3636L 28.1937 14.3636C 28.1937 15.4886 29.0119 16.0895 30.1625 16.0895C 31.3258 16.0895 32.2974 15.3991 32.2974 14.2294C 32.2974 13.6445 32.0577 12.9446 31.1916 12.6506C 31.8819 12.315 32.1568 11.6438 32.1568 11.1804C 32.1568 9.99148 31.3258 9.36506 30.1912 9.36506C 28.9352 9.36506 28.2576 10.1321 28.2576 11.0909L 29.0119 11.0909C 29.0119 10.4517 29.4721 9.99148 30.1816 9.99148C 30.8784 9.99148 31.377 10.4389 31.377 11.1676C 31.377 11.794 30.9167 12.3182 30.0985 12.3182L 29.7278 12.3182L 29.7278 13.0469ZM 37.7171 15.2969L 34.8918 15.2969C 34.7128 15.2969 34.5977 15.2969 34.4699 15.348L 34.4316 15.2713C 34.5562 15.2138 34.6233 15.1467 34.7288 15.038L 36.2725 13.456C 36.9468 12.7624 37.5509 11.973 37.5509 11.2188C 37.5509 10.1449 36.7327 9.36506 35.5342 9.36506C 34.1247 9.36506 33.5622 10.4389 33.5622 11.5L 34.3421 11.5C 34.3421 10.7457 34.6233 10.017 35.5086 10.017C 36.298 10.017 36.7838 10.5923 36.7838 11.2411C 36.7838 11.8068 36.4131 12.2415 35.6205 13.0597L 33.3193 15.4247L 33.3193 16L 37.7171 16L 37.7171 15.2969ZM 41.0146 9.45455L 40.8867 9.45455L 38.6239 10.4134L 38.6239 11.1932L 40.2603 10.5156L 40.2603 16L 41.0146 16L 41.0146 9.45455ZM 43.2965 16.0895C 43.6161 16.0895 43.8718 15.8338 43.8718 15.5142C 43.8718 15.2074 43.6161 14.9517 43.2965 14.9517C 42.9897 14.9517 42.7212 15.1946 42.7212 15.5142C 42.7212 15.8338 42.9769 16.0895 43.2965 16.0895ZM 45.7223 16.0895C 46.0419 16.0895 46.2976 15.8338 46.2976 15.5142C 46.2976 15.2074 46.0419 14.9517 45.7223 14.9517C 45.4155 14.9517 45.147 15.1946 45.147 15.5142C 45.147 15.8338 45.4027 16.0895 45.7223 16.0895ZM 48.1481 16.0895C 48.4677 16.0895 48.7234 15.8338 48.7234 15.5142C 48.7234 15.2074 48.4677 14.9517 48.1481 14.9517C 47.8413 14.9517 47.5728 15.1946 47.5728 15.5142C 47.5728 15.8338 47.8285 16.0895 48.1481 16.0895Z"/>
<path id="path18_fill" d="M 4.84517 12.152C 4.84517 10.2344 3.9375 9.36506 2.66548 9.36506C 1.39347 9.36506 0.473011 10.2344 0.473011 12.152L 0.473011 13.1875C 0.473011 15.1179 1.40625 16.0895 2.67827 16.0895C 3.95028 16.0895 4.84517 15.1179 4.84517 13.1875L 4.84517 12.152ZM 4.05256 13.3281C 4.05256 14.5554 3.46449 15.3864 2.67827 15.3864C 1.89205 15.3864 1.26562 14.5554 1.26562 13.3281L 1.26562 12.0114C 1.26562 10.7713 1.87926 10.0682 2.66548 10.0682C 3.4517 10.0682 4.05256 10.7713 4.05256 12.0114L 4.05256 13.3281ZM 6.45676 11.0909L 5.58745 11.0909L 7.14711 13.5455L 5.58745 16L 6.45676 16L 7.6329 14.0952L 8.80904 16L 9.67836 16L 8.09313 13.5455L 9.67836 11.0909L 8.80904 11.0909L 7.6329 13.098L 6.45676 11.0909ZM 11.405 14.37L 10.6507 14.37C 10.8841 15.4822 11.4721 16.0959 12.5524 16.0959C 14.0066 16.0959 14.7544 14.8271 14.7544 12.804L 14.7544 12.5866C 14.7544 10.4901 14.0961 9.37145 12.6259 9.37145C 11.29 9.37145 10.5485 10.3175 10.5485 11.5192C 10.5485 12.5675 11.1333 13.5774 12.4565 13.5774C 12.987 13.5774 13.5719 13.4016 13.9746 12.9574C 13.9299 14.9421 13.1916 15.3928 12.5428 15.3928C 11.7725 15.3928 11.5552 14.8175 11.405 14.37ZM 11.3027 11.4808C 11.3027 10.6371 11.8525 10.0618 12.562 10.0618C 13.2619 10.0618 13.8979 10.538 13.9107 11.516C 13.8979 12.3469 13.2875 12.8743 12.5364 12.8743C 11.6319 12.8743 11.3027 12.2223 11.3027 11.4808ZM 18.1542 9.45455L 18.0264 9.45455L 15.7636 10.4134L 15.7636 11.1932L 17.3999 10.5156L 17.3999 16L 18.1542 16L 18.1542 9.45455ZM 24.2866 12.152C 24.2866 10.2344 23.3789 9.36506 22.1069 9.36506C 20.8349 9.36506 19.9144 10.2344 19.9144 12.152L 19.9144 13.1875C 19.9144 15.1179 20.8477 16.0895 22.1197 16.0895C 23.3917 16.0895 24.2866 15.1179 24.2866 13.1875L 24.2866 12.152ZM 23.494 13.3281C 23.494 14.5554 22.9059 15.3864 22.1197 15.3864C 21.3335 15.3864 20.707 14.5554 20.707 13.3281L 20.707 12.0114C 20.707 10.7713 21.3207 10.0682 22.1069 10.0682C 22.8931 10.0682 23.494 10.7713 23.494 12.0114L 23.494 13.3281ZM 26.9065 13.0469L 27.2773 13.0469C 28.0699 13.0469 28.6452 13.4432 28.6452 14.223C 28.6452 15.0156 28.0571 15.4119 27.3284 15.4119C 26.5997 15.4119 26.1906 15.0156 26.1906 14.3636L 25.3724 14.3636C 25.3724 15.4886 26.1906 16.0895 27.3412 16.0895C 28.5045 16.0895 29.4761 15.3991 29.4761 14.2294C 29.4761 13.6445 29.2364 12.9446 28.3703 12.6506C 29.0606 12.315 29.3355 11.6438 29.3355 11.1804C 29.3355 9.99148 28.5045 9.36506 27.3699 9.36506C 26.1139 9.36506 25.4363 10.1321 25.4363 11.0909L 26.1906 11.0909C 26.1906 10.4517 26.6508 9.99148 27.3604 9.99148C 28.0571 9.99148 28.5557 10.4389 28.5557 11.1676C 28.5557 11.794 28.0954 12.3182 27.2773 12.3182L 26.9065 12.3182L 26.9065 13.0469ZM 32.2239 13.0469L 32.5946 13.0469C 33.3873 13.0469 33.9625 13.4432 33.9625 14.223C 33.9625 15.0156 33.3745 15.4119 32.6458 15.4119C 31.9171 15.4119 31.508 15.0156 31.508 14.3636L 30.6898 14.3636C 30.6898 15.4886 31.508 16.0895 32.6586 16.0895C 33.8219 16.0895 34.7935 15.3991 34.7935 14.2294C 34.7935 13.6445 34.5538 12.9446 33.6877 12.6506C 34.378 12.315 34.6529 11.6438 34.6529 11.1804C 34.6529 9.99148 33.8219 9.36506 32.6873 9.36506C 31.4313 9.36506 30.7537 10.1321 30.7537 11.0909L 31.508 11.0909C 31.508 10.4517 31.9682 9.99148 32.6777 9.99148C 33.3745 9.99148 33.873 10.4389 33.873 11.1676C 33.873 11.794 33.4128 12.3182 32.5946 12.3182L 32.2239 12.3182L 32.2239 13.0469ZM 38.9987 16L 39.7529 16L 39.7529 13.1747C 39.7529 11.4744 38.8325 11.027 37.8481 11.027C 37.2984 11.027 36.2884 11.1932 35.8921 12.2287L 36.5953 12.4972C 36.8382 12.0114 37.2856 11.6918 37.8609 11.6918C 38.4873 11.6918 38.9987 12.0625 38.9987 13.0341L 38.9987 13.1236L 38.6024 13.1236C 36.9276 13.1236 35.8282 13.5327 35.8282 14.7088C 35.8282 15.5526 36.5186 16.1151 37.5029 16.1151C 38.2955 16.1151 38.8069 15.6548 38.9603 15.3352L 38.9987 15.3352L 38.9987 16ZM 38.9987 13.7628L 38.9987 14.2614C 38.9987 14.875 38.385 15.4375 37.4774 15.4375C 37.1322 15.4375 36.5825 15.3224 36.5825 14.7088C 36.5825 13.9034 37.4518 13.7628 38.6024 13.7628L 38.9987 13.7628ZM 42.8691 9.45455L 42.7412 9.45455L 40.4784 10.4134L 40.4784 11.1932L 42.1148 10.5156L 42.1148 16L 42.8691 16L 42.8691 9.45455ZM 45.151 16.0895C 45.4706 16.0895 45.7263 15.8338 45.7263 15.5142C 45.7263 15.2074 45.4706 14.9517 45.151 14.9517C 44.8442 14.9517 44.5757 15.1946 44.5757 15.5142C 44.5757 15.8338 44.8314 16.0895 45.151 16.0895ZM 47.5768 16.0895C 47.8964 16.0895 48.1521 15.8338 48.1521 15.5142C 48.1521 15.2074 47.8964 14.9517 47.5768 14.9517C 47.27 14.9517 47.0015 15.1946 47.0015 15.5142C 47.0015 15.8338 47.2572 16.0895 47.5768 16.0895ZM 50.0026 16.0895C 50.3222 16.0895 50.5779 15.8338 50.5779 15.5142C 50.5779 15.2074 50.3222 14.9517 50.0026 14.9517C 49.6958 14.9517 49.4273 15.1946 49.4273 15.5142C 49.4273 15.8338 49.683 16.0895 50.0026 16.0895Z"/>
<path id="path19_fill" d="M 4.84517 11.152C 4.84517 9.23438 3.9375 8.36506 2.66548 8.36506C 1.39347 8.36506 0.473011 9.23438 0.473011 11.152L 0.473011 12.1875C 0.473011 14.1179 1.40625 15.0895 2.67827 15.0895C 3.95028 15.0895 4.84517 14.1179 4.84517 12.1875L 4.84517 11.152ZM 4.05256 12.3281C 4.05256 13.5554 3.46449 14.3864 2.67827 14.3864C 1.89205 14.3864 1.26562 13.5554 1.26562 12.3281L 1.26562 11.0114C 1.26562 9.77131 1.87926 9.06818 2.66548 9.06818C 3.4517 9.06818 4.05256 9.77131 4.05256 11.0114L 4.05256 12.3281ZM 6.45676 10.0909L 5.58745 10.0909L 7.14711 12.5455L 5.58745 15L 6.45676 15L 7.6329 13.0952L 8.80904 15L 9.67836 15L 8.09313 12.5455L 9.67836 10.0909L 8.80904 10.0909L 7.6329 12.098L 6.45676 10.0909ZM 12.8368 8.45455L 12.709 8.45455L 10.4462 9.41335L 10.4462 10.1932L 12.0826 9.51562L 12.0826 15L 12.8368 15L 12.8368 8.45455ZM 18.9436 14.2969L 16.1183 14.2969C 15.9394 14.2969 15.8243 14.2969 15.6965 14.348L 15.6581 14.2713C 15.7828 14.2138 15.8499 14.1467 15.9553 14.038L 17.499 12.456C 18.1734 11.7624 18.7774 10.973 18.7774 10.2188C 18.7774 9.14489 17.9593 8.36506 16.7607 8.36506C 15.3513 8.36506 14.7888 9.43892 14.7888 10.5L 15.5686 10.5C 15.5686 9.74574 15.8499 9.01705 16.7352 9.01705C 17.5246 9.01705 18.0104 9.59233 18.0104 10.2411C 18.0104 10.8068 17.6396 11.2415 16.847 12.0597L 14.5459 14.4247L 14.5459 15L 18.9436 15L 18.9436 14.2969ZM 22.0821 15.1023C 23.0665 15.1023 23.7057 14.642 23.9869 13.9901L 23.2966 13.6832C 23.0921 14.1435 22.683 14.4247 22.0821 14.4247C 21.2416 14.4247 20.7014 13.8015 20.6024 12.8651L 24.1276 12.8651L 24.1276 12.5455C 24.1276 10.7429 23.2327 10.027 22.0054 10.027C 20.6887 10.027 19.8321 11.0753 19.8321 12.5455C 19.8321 14.054 20.6759 15.1023 22.0821 15.1023ZM 22.0182 10.7045C 22.8747 10.7045 23.3989 11.2415 23.3989 12.2131L 20.6056 12.2131C 20.711 11.3182 21.2544 10.7045 22.0182 10.7045ZM 26.3169 15L 26.3169 10.794L 27.4035 10.794L 27.4163 10.0909L 26.3169 10.0909L 26.3169 9.75852C 26.3169 9.18324 26.841 9.0554 27.0839 9.0554C 27.314 9.0554 27.3268 9.06818 27.4291 9.08097L 27.4291 8.41619C 27.3524 8.39062 27.2117 8.36506 27.0328 8.36506C 26.2274 8.36506 25.5626 8.86364 25.5626 9.75852L 25.5626 10.0909L 24.77 10.0909L 24.77 10.794L 25.5626 10.794L 25.5626 15L 26.3169 15ZM 31.2116 15L 31.9658 15L 31.9658 12.1747C 31.9658 10.4744 31.0454 10.027 30.061 10.027C 29.5113 10.027 28.5013 10.1932 28.105 11.2287L 28.8081 11.4972C 29.051 11.0114 29.4985 10.6918 30.0738 10.6918C 30.7002 10.6918 31.2116 11.0625 31.2116 12.0341L 31.2116 12.1236L 30.8153 12.1236C 29.1405 12.1236 28.0411 12.5327 28.0411 13.7088C 28.0411 14.5526 28.7314 15.1151 29.7158 15.1151C 30.5084 15.1151 31.0198 14.6548 31.1732 14.3352L 31.2116 14.3352L 31.2116 15ZM 31.2116 12.7628L 31.2116 13.2614C 31.2116 13.875 30.5979 14.4375 29.6903 14.4375C 29.3451 14.4375 28.7954 14.3224 28.7954 13.7088C 28.7954 12.9034 29.6647 12.7628 30.8153 12.7628L 31.2116 12.7628ZM 34.0273 11.9766C 34.3213 11.7337 34.6792 11.5643 35.2801 11.5643C 35.9608 11.5643 36.648 11.9766 36.648 12.9673C 36.648 13.8654 35.9768 14.4151 35.2258 14.4151C 34.5706 14.4151 34.104 14.0668 33.9697 13.3636L 33.2027 13.3636C 33.3177 14.5653 34.1423 15.0895 35.1778 15.0895C 36.5841 15.0895 37.3991 14.2138 37.3991 12.9577C 37.3991 11.6825 36.5585 10.8516 35.2801 10.8516C 34.8327 10.8516 34.3788 11.0337 34.1455 11.2351L 34.1008 11.2351L 34.3724 9.20881L 37.1082 9.20881L 37.1082 8.45455L 33.6565 8.45455L 33.273 11.804L 34.0273 11.9766ZM 41.9015 10.0909L 42.6557 10.0909C 42.4224 8.97869 41.8343 8.36506 40.7541 8.36506C 39.2999 8.36506 38.552 9.63388 38.552 11.657L 38.552 11.8743C 38.552 13.9709 39.2104 15.0895 40.6806 15.0895C 42.0165 15.0895 42.758 14.1435 42.758 12.9418C 42.758 11.8935 42.1731 10.8835 40.85 10.8835C 40.3194 10.8835 39.7346 11.0593 39.3319 11.5036C 39.3766 9.51882 40.1149 9.06818 40.7637 9.06818C 41.5339 9.06818 41.7512 9.64347 41.9015 10.0909ZM 40.7701 11.5866C 41.6745 11.5866 42.0037 12.2386 42.0037 12.9801C 42.0037 13.8239 41.454 14.3991 40.7445 14.3991C 40.0446 14.3991 39.4086 13.9229 39.3958 12.945C 39.4086 12.114 40.019 11.5866 40.7701 11.5866ZM 45.4163 12.0469L 45.787 12.0469C 46.5796 12.0469 47.1549 12.4432 47.1549 13.223C 47.1549 14.0156 46.5669 14.4119 45.8382 14.4119C 45.1095 14.4119 44.7004 14.0156 44.7004 13.3636L 43.8822 13.3636C 43.8822 14.4886 44.7004 15.0895 45.8509 15.0895C 47.0143 15.0895 47.9859 14.3991 47.9859 13.2294C 47.9859 12.6445 47.7462 11.9446 46.8801 11.6506C 47.5704 11.315 47.8453 10.6438 47.8453 10.1804C 47.8453 8.99148 47.0143 8.36506 45.8797 8.36506C 44.6237 8.36506 43.9461 9.1321 43.9461 10.0909L 44.7004 10.0909C 44.7004 9.4517 45.1606 8.99148 45.8701 8.99148C 46.5669 8.99148 47.0654 9.43892 47.0654 10.1676C 47.0654 10.794 46.6052 11.3182 45.787 11.3182L 45.4163 11.3182L 45.4163 12.0469ZM 49.4928 15.0895C 49.8124 15.0895 50.0681 14.8338 50.0681 14.5142C 50.0681 14.2074 49.8124 13.9517 49.4928 13.9517C 49.186 13.9517 48.9175 14.1946 48.9175 14.5142C 48.9175 14.8338 49.1732 15.0895 49.4928 15.0895ZM 51.9186 15.0895C 52.2382 15.0895 52.4939 14.8338 52.4939 14.5142C 52.4939 14.2074 52.2382 13.9517 51.9186 13.9517C 51.6118 13.9517 51.3433 14.1946 51.3433 14.5142C 51.3433 14.8338 51.599 15.0895 51.9186 15.0895ZM 54.3444 15.0895C 54.664 15.0895 54.9197 14.8338 54.9197 14.5142C 54.9197 14.2074 54.664 13.9517 54.3444 13.9517C 54.0376 13.9517 53.7691 14.1946 53.7691 14.5142C 53.7691 14.8338 54.0248 15.0895 54.3444 15.0895Z"/>
<path id="path20_fill" d="M 4.84517 12.152C 4.84517 10.2344 3.9375 9.36506 2.66548 9.36506C 1.39347 9.36506 0.473011 10.2344 0.473011 12.152L 0.473011 13.1875C 0.473011 15.1179 1.40625 16.0895 2.67827 16.0895C 3.95028 16.0895 4.84517 15.1179 4.84517 13.1875L 4.84517 12.152ZM 4.05256 13.3281C 4.05256 14.5554 3.46449 15.3864 2.67827 15.3864C 1.89205 15.3864 1.26562 14.5554 1.26562 13.3281L 1.26562 12.0114C 1.26562 10.7713 1.87926 10.0682 2.66548 10.0682C 3.4517 10.0682 4.05256 10.7713 4.05256 12.0114L 4.05256 13.3281ZM 6.45676 11.0909L 5.58745 11.0909L 7.14711 13.5455L 5.58745 16L 6.45676 16L 7.6329 14.0952L 8.80904 16L 9.67836 16L 8.09313 13.5455L 9.67836 11.0909L 8.80904 11.0909L 7.6329 13.098L 6.45676 11.0909ZM 14.7944 12.152C 14.7944 10.2344 13.8867 9.36506 12.6147 9.36506C 11.3427 9.36506 10.4222 10.2344 10.4222 12.152L 10.4222 13.1875C 10.4222 15.1179 11.3555 16.0895 12.6275 16.0895C 13.8995 16.0895 14.7944 15.1179 14.7944 13.1875L 14.7944 12.152ZM 14.0018 13.3281C 14.0018 14.5554 13.4137 15.3864 12.6275 15.3864C 11.8413 15.3864 11.2148 14.5554 11.2148 13.3281L 11.2148 12.0114C 11.2148 10.7713 11.8285 10.0682 12.6147 10.0682C 13.4009 10.0682 14.0018 10.7713 14.0018 12.0114L 14.0018 13.3281ZM 20.0862 15.2969L 17.2609 15.2969C 17.0819 15.2969 16.9669 15.2969 16.839 15.348L 16.8007 15.2713C 16.9253 15.2138 16.9925 15.1467 17.0979 15.038L 18.6416 13.456C 19.316 12.7624 19.92 11.973 19.92 11.2188C 19.92 10.1449 19.1018 9.36506 17.9033 9.36506C 16.4939 9.36506 15.9314 10.4389 15.9314 11.5L 16.7112 11.5C 16.7112 10.7457 16.9925 10.017 17.8778 10.017C 18.6672 10.017 19.153 10.5923 19.153 11.2411C 19.153 11.8068 18.7822 12.2415 17.9896 13.0597L 15.6885 15.4247L 15.6885 16L 20.0862 16L 20.0862 15.2969ZM 22.3354 16L 22.3354 11.794L 23.4221 11.794L 23.4348 11.0909L 22.3354 11.0909L 22.3354 10.7585C 22.3354 10.1832 22.8596 10.0554 23.1025 10.0554C 23.3326 10.0554 23.3453 10.0682 23.4476 10.081L 23.4476 9.41619C 23.3709 9.39062 23.2303 9.36506 23.0513 9.36506C 22.2459 9.36506 21.5811 9.86364 21.5811 10.7585L 21.5811 11.0909L 20.7885 11.0909L 20.7885 11.794L 21.5811 11.794L 21.5811 16L 22.3354 16ZM 26.2393 16.1023C 27.2237 16.1023 27.8629 15.642 28.1442 14.9901L 27.4538 14.6832C 27.2493 15.1435 26.8402 15.4247 26.2393 15.4247C 25.3988 15.4247 24.8587 14.8015 24.7596 13.8651L 28.2848 13.8651L 28.2848 13.5455C 28.2848 11.7429 27.3899 11.027 26.1626 11.027C 24.8459 11.027 23.9893 12.0753 23.9893 13.5455C 23.9893 15.054 24.8331 16.1023 26.2393 16.1023ZM 26.1754 11.7045C 27.032 11.7045 27.5561 12.2415 27.5561 13.2131L 24.7628 13.2131C 24.8683 12.3182 25.4116 11.7045 26.1754 11.7045ZM 29.9371 16.0895C 30.2567 16.0895 30.5124 15.8338 30.5124 15.5142C 30.5124 15.2074 30.2567 14.9517 29.9371 14.9517C 29.6303 14.9517 29.3619 15.1946 29.3619 15.5142C 29.3619 15.8338 29.6175 16.0895 29.9371 16.0895ZM 32.3629 16.0895C 32.6825 16.0895 32.9382 15.8338 32.9382 15.5142C 32.9382 15.2074 32.6825 14.9517 32.3629 14.9517C 32.0561 14.9517 31.7876 15.1946 31.7876 15.5142C 31.7876 15.8338 32.0433 16.0895 32.3629 16.0895ZM 34.7887 16.0895C 35.1083 16.0895 35.364 15.8338 35.364 15.5142C 35.364 15.2074 35.1083 14.9517 34.7887 14.9517C 34.4819 14.9517 34.2134 15.1946 34.2134 15.5142C 34.2134 15.8338 34.4691 16.0895 34.7887 16.0895Z"/>
<path id="path21_fill" d="M 4.84517 12.152C 4.84517 10.2344 3.9375 9.36506 2.66548 9.36506C 1.39347 9.36506 0.473011 10.2344 0.473011 12.152L 0.473011 13.1875C 0.473011 15.1179 1.40625 16.0895 2.67827 16.0895C 3.95028 16.0895 4.84517 15.1179 4.84517 13.1875L 4.84517 12.152ZM 4.05256 13.3281C 4.05256 14.5554 3.46449 15.3864 2.67827 15.3864C 1.89205 15.3864 1.26562 14.5554 1.26562 13.3281L 1.26562 12.0114C 1.26562 10.7713 1.87926 10.0682 2.66548 10.0682C 3.4517 10.0682 4.05256 10.7713 4.05256 12.0114L 4.05256 13.3281ZM 6.45676 11.0909L 5.58745 11.0909L 7.14711 13.5455L 5.58745 16L 6.45676 16L 7.6329 14.0952L 8.80904 16L 9.67836 16L 8.09313 13.5455L 9.67836 11.0909L 8.80904 11.0909L 7.6329 13.098L 6.45676 11.0909ZM 14.8471 14.0696L 13.9522 14.0696L 13.9522 9.45455L 13.1213 9.45455L 10.1681 14.2741L 10.1681 14.7727L 13.2491 14.7727L 13.2491 16L 13.9522 16L 13.9522 14.7727L 14.8471 14.7727L 14.8471 14.0696ZM 11.1525 14.0696L 13.1213 10.7713L 13.2491 10.3462L 13.2491 14.0696L 11.1525 14.0696ZM 19.9983 15.2969L 17.173 15.2969C 16.9941 15.2969 16.879 15.2969 16.7512 15.348L 16.7128 15.2713C 16.8374 15.2138 16.9046 15.1467 17.01 15.038L 18.5537 13.456C 19.2281 12.7624 19.8321 11.973 19.8321 11.2188C 19.8321 10.1449 19.0139 9.36506 17.8154 9.36506C 16.406 9.36506 15.8435 10.4389 15.8435 11.5L 16.6233 11.5C 16.6233 10.7457 16.9046 10.017 17.7899 10.017C 18.5793 10.017 19.0651 10.5923 19.0651 11.2411C 19.0651 11.8068 18.6943 12.2415 17.9017 13.0597L 15.6006 15.4247L 15.6006 16L 19.9983 16L 19.9983 15.2969ZM 22.2475 16L 22.2475 11.794L 23.3342 11.794L 23.3469 11.0909L 22.2475 11.0909L 22.2475 10.7585C 22.2475 10.1832 22.7717 10.0554 23.0146 10.0554C 23.2447 10.0554 23.2575 10.0682 23.3597 10.081L 23.3597 9.41619C 23.283 9.39062 23.1424 9.36506 22.9634 9.36506C 22.158 9.36506 21.4933 9.86364 21.4933 10.7585L 21.4933 11.0909L 20.7006 11.0909L 20.7006 11.794L 21.4933 11.794L 21.4933 16L 22.2475 16ZM 26.1515 16.1023C 27.1358 16.1023 27.775 15.642 28.0563 14.9901L 27.3659 14.6832C 27.1614 15.1435 26.7523 15.4247 26.1515 15.4247C 25.3109 15.4247 24.7708 14.8015 24.6717 13.8651L 28.1969 13.8651L 28.1969 13.5455C 28.1969 11.7429 27.302 11.027 26.0748 11.027C 24.758 11.027 23.9015 12.0753 23.9015 13.5455C 23.9015 15.054 24.7452 16.1023 26.1515 16.1023ZM 26.0875 11.7045C 26.9441 11.7045 27.4682 12.2415 27.4682 13.2131L 24.6749 13.2131C 24.7804 12.3182 25.3237 11.7045 26.0875 11.7045ZM 32.2399 16L 32.9941 16L 32.9941 13.1747C 32.9941 11.4744 32.0737 11.027 31.0893 11.027C 30.5396 11.027 29.5297 11.1932 29.1333 12.2287L 29.8365 12.4972C 30.0794 12.0114 30.5268 11.6918 31.1021 11.6918C 31.7285 11.6918 32.2399 12.0625 32.2399 13.0341L 32.2399 13.1236L 31.8436 13.1236C 30.1689 13.1236 29.0694 13.5327 29.0694 14.7088C 29.0694 15.5526 29.7598 16.1151 30.7441 16.1151C 31.5368 16.1151 32.0481 15.6548 32.2015 15.3352L 32.2399 15.3352L 32.2399 16ZM 32.2399 13.7628L 32.2399 14.2614C 32.2399 14.875 31.6262 15.4375 30.7186 15.4375C 30.3734 15.4375 29.8237 15.3224 29.8237 14.7088C 29.8237 13.9034 30.693 13.7628 31.8436 13.7628L 32.2399 13.7628ZM 38.4817 15.2969L 35.6564 15.2969C 35.4775 15.2969 35.3624 15.2969 35.2346 15.348L 35.1962 15.2713C 35.3208 15.2138 35.388 15.1467 35.4934 15.038L 37.0371 13.456C 37.7115 12.7624 38.3155 11.973 38.3155 11.2188C 38.3155 10.1449 37.4973 9.36506 36.2988 9.36506C 34.8894 9.36506 34.3269 10.4389 34.3269 11.5L 35.1067 11.5C 35.1067 10.7457 35.388 10.017 36.2733 10.017C 37.0627 10.017 37.5485 10.5923 37.5485 11.2411C 37.5485 11.8068 37.1777 12.2415 36.3851 13.0597L 34.084 15.4247L 34.084 16L 38.4817 16L 38.4817 15.2969ZM 40.0621 16.0895C 40.3817 16.0895 40.6374 15.8338 40.6374 15.5142C 40.6374 15.2074 40.3817 14.9517 40.0621 14.9517C 39.7553 14.9517 39.4869 15.1946 39.4869 15.5142C 39.4869 15.8338 39.7425 16.0895 40.0621 16.0895ZM 42.4879 16.0895C 42.8075 16.0895 43.0632 15.8338 43.0632 15.5142C 43.0632 15.2074 42.8075 14.9517 42.4879 14.9517C 42.1811 14.9517 41.9126 15.1946 41.9126 15.5142C 41.9126 15.8338 42.1683 16.0895 42.4879 16.0895ZM 44.9137 16.0895C 45.2333 16.0895 45.489 15.8338 45.489 15.5142C 45.489 15.2074 45.2333 14.9517 44.9137 14.9517C 44.6069 14.9517 44.3384 15.1946 44.3384 15.5142C 44.3384 15.8338 44.5941 16.0895 44.9137 16.0895Z"/>
</defs>
</svg>
