<svg width="270" height="270" viewBox="0 0 270 270" version="1.1" xmlns="http://www.w3.org/2000/svg" xmlns:xlink="http://www.w3.org/1999/xlink">
<title>coordProtocol</title>
<desc>Created using Figma</desc>
<g id="Canvas" transform="translate(-52512 -805)">
<clipPath id="clip-0" clip-rule="evenodd">
<path d="M 52512 805L 52782 805L 52782 1075L 52512 1075L 52512 805Z" fill="#FFFFFF"/>
</clipPath>
<g id="coordProtocol" clip-path="url(#clip-0)">
<g id="Ellipse 2">
<use xlink:href="#path0_fill" transform="translate(52545 838)" fill="url(#paint0_linear)"/>
</g>
<g id="Polygon">
<use xlink:href="#path1_fill" transform="translate(52572 887.5)" fill="url(#paint1_radial)"/>
</g>
<g id="Group 2">
<g id="Rectangle">
<use xlink:href="#path2_stroke" transform="matrix(-0.866419 0.499317 -0.619635 -0.784891 52732 956.044)" fill="url(#paint2_linear)"/>
</g>
</g>
<g id="Group 2">
<g id="Ellipse">
<use xlink:href="#path3_fill" transform="translate(52557 879)" fill="#1B62C2"/>
</g>
<g id="Ellipse">
<use xlink:href="#path3_fill" transform="translate(52557 877)" fill="#2F80ED"/>
</g>
</g>
<g id="Group 2.1">
<g id="Ellipse">
<use xlink:href="#path3_fill" transform="translate(52647 848)" fill="#1B62C2"/>
</g>
<g id="Ellipse">
<use xlink:href="#path3_fill" transform="translate(52647 846)" fill="#2F80ED"/>
</g>
</g>
<g id="Group">
<g id="Ellipse">
<use xlink:href="#path3_fill" transform="translate(52710 902)" fill="#1B62C2"/>
</g>
<g id="Ellipse">
<use xlink:href="#path3_fill" transform="translate(52710 900)" fill="#2F80ED"/>
</g>
</g>
<g id="Group">
<g id="Ellipse">
<use xlink:href="#path3_fill" transform="translate(52572 982)" fill="#1B62C2"/>
</g>
<g id="Ellipse">
<use xlink:href="#path3_fill" transform="translate(52572 980)" fill="#2F80ED"/>
</g>
</g>
<g id="Group 3">
<g id="Group 2.2">
<g id="Group">
<g id="Vector">
<use xlink:href="#path4_fill" transform="matrix(-0.744538 -0.73658 0.83364 -0.482974 52680 1001.93)" fill="#CF6B65"/>
</g>
<g id="Vector">
<use xlink:href="#path5_fill" transform="matrix(-0.744538 -0.73658 0.83364 -0.482974 52683.3 992.049)" fill="#CF6B65"/>
</g>
</g>
</g>
<g id="Group 2">
<g id="Group">
<g id="Vector">
<use xlink:href="#path4_fill" transform="matrix(-0.744538 -0.73658 0.83364 -0.482974 52680 1000.18)" fill="#EB7F7C"/>
</g>
<g id="Vector">
<use xlink:href="#path5_fill" transform="matrix(-0.744538 -0.73658 0.83364 -0.482974 52683.3 991.294)" fill="#EB7F7C"/>
</g>
</g>
</g>
</g>
<g id="Group 3.1">
<g id="Group 2.2">
<g id="Group">
<g id="Vector">
<use xlink:href="#path6_fill" transform="matrix(-0.744538 -0.73658 0.83364 -0.482974 52680 1001.93)" fill="#CF6B65"/>
</g>
<g id="Vector">
<use xlink:href="#path7_fill" transform="matrix(-0.744538 -0.73658 0.83364 -0.482974 52683.3 992.049)" fill="#CF6B65"/>
</g>
</g>
</g>
<g id="Group 2">
<g id="Group">
<g id="Vector">
<use xlink:href="#path6_fill" transform="matrix(-0.744538 -0.73658 0.83364 -0.482974 52680 1000.18)" fill="#EB7F7C"/>
</g>
<g id="Vector">
<use xlink:href="#path7_fill" transform="matrix(-0.744538 -0.73658 0.83364 -0.482974 52683.3 991.294)" fill="#EB7F7C"/>
</g>
</g>
</g>
</g>
<g id="Line">
<use xlink:href="#path8_stroke" transform="matrix(0.943312 -0.331906 0.331906 0.943312 52590 882)" fill="#2F80ED"/>
</g>
<g id="Line">
<use xlink:href="#path9_stroke" transform="matrix(0.137568 0.990492 -0.990492 0.137568 52569 885)" fill="#2F80ED"/>
</g>
<g id="Line">
<use xlink:href="#path10_stroke" transform="matrix(-0.862265 0.506456 -0.506456 -0.862265 52726 907.006)" fill="#2F80ED"/>
</g>
<g id="Line">
<use xlink:href="#path11_stroke" transform="matrix(-0.987863 -0.155324 0.155324 -0.987863 52728 909)" fill="#2F80ED"/>
</g>
<g id="Line">
<use xlink:href="#path12_stroke" transform="matrix(0.767282 0.64131 -0.64131 0.767282 52658 857)" fill="#2F80ED"/>
</g>
<g id="Vector">
<use xlink:href="#path13_stroke" transform="translate(52688 886.406)" fill="url(#paint24_linear)"/>
</g>
<g id="Vector">
<use xlink:href="#path14_stroke" transform="matrix(-1 0 0 1 52688 935.375)" fill="url(#paint25_linear)"/>
</g>
<g id="Ellipse">
<use xlink:href="#path15_fill" transform="translate(52580 986)" fill="#BDD9FF"/>
</g>
<g id="Ellipse">
<use xlink:href="#path15_fill" transform="translate(52565 883)" fill="#BDD9FF"/>
</g>
<g id="Ellipse">
<use xlink:href="#path15_fill" transform="translate(52718 906)" fill="#BDD9FF"/>
</g>
<g id="Ellipse">
<use xlink:href="#path15_fill" transform="translate(52655 852)" fill="#BDD9FF"/>
</g>
</g>
</g>
<defs>
<linearGradient id="paint0_linear" x1="0" y1="0" x2="1" y2="0" gradientUnits="userSpaceOnUse" gradientTransform="matrix(139.4 149.24 -149.24 139.4 107.01 -40.59)">
<stop offset="0" stop-color="#2E2E2E"/>
<stop offset="1" stop-color="#141414"/>
</linearGradient>
<radialGradient id="paint1_radial" cx="0.5" cy="0.5" r="0.5" gradientUnits="userSpaceOnUse" gradientTransform="matrix(141 28 -35.4235 178.383 18.7118 -92.6915)">
<stop offset="0" stop-color="#0072FF" stop-opacity="0.96"/>
<stop offset="1" stop-color="#0072FF" stop-opacity="0"/>
</radialGradient>
<linearGradient id="paint2_linear" x1="0" y1="0" x2="1" y2="0" gradientUnits="userSpaceOnUse" gradientTransform="matrix(120.43 -6.20138 -26.4843 111.085 24.6332 -48.8764)">
<stop offset="0" stop-color="#FFC9C7"/>
<stop offset="1" stop-color="#FFC2C2" stop-opacity="0"/>
</linearGradient>
<linearGradient id="paint24_linear" x1="0" y1="0" x2="1" y2="0" gradientUnits="userSpaceOnUse" gradientTransform="matrix(-32 17.5 -7.10817 -12.9978 40.5541 30.093)">
<stop offset="0" stop-color="#2F80ED"/>
<stop offset="1" stop-color="#E86F68"/>
</linearGradient>
<linearGradient id="paint25_linear" x1="0" y1="0" x2="1" y2="0" gradientUnits="userSpaceOnUse" gradientTransform="matrix(101 11.5 -21.0703 185.052 10.5352 -49.4013)">
<stop offset="0" stop-color="#E86F68"/>
<stop offset="1" stop-color="#2F80ED"/>
</linearGradient>
<path id="path0_fill" d="M 205 102.5C 205 159.109 159.109 205 102.5 205C 45.8908 205 0 159.109 0 102.5C 0 45.8908 45.8908 0 102.5 0C 159.109 0 205 45.8908 205 102.5Z"/>
<path id="path1_fill" d="M 0 0L 154.5 23.5L 14 105.5L 0 0Z"/>
<path id="path2_stroke" d="M 29.1051 0.166413L 29.1337 -4.8335L 29.1051 0.166413ZM 10.2796 27.2298L 14.9574 25.4639L 10.2796 27.2298ZM 29.0765 5.16633L 202.159 6.15596L 202.216 -3.84388L 29.1337 -4.8335L 29.0765 5.16633ZM 87.4273 217.43L 14.9574 25.4639L 5.60188 28.9957L 78.0717 220.961L 87.4273 217.43ZM 29.1337 -4.8335C 11.5946 -4.93379 -0.592753 12.5867 5.60188 28.9957L 14.9574 25.4639C 11.2406 15.6185 18.553 5.10616 29.0765 5.16633L 29.1337 -4.8335Z"/>
<path id="path3_fill" d="M 30 10.8158C 30 16.7892 23.2843 21.6316 15 21.6316C 6.71573 21.6316 0 16.7892 0 10.8158C 0 4.84239 6.71573 0 15 0C 23.2843 0 30 4.84239 30 10.8158Z"/>
<path id="path4_fill" d="M 13.109 3.07226L 15.5883 2.00361C 15.2037 0.799224 14.2147 0 13.109 0C 12.0033 0 11.0142 0.799224 10.6296 2.00361L 13.109 3.07226ZM 2.64455 35.8406L 0.165241 34.772C -0.210417 35.9483 0.0673759 37.2719 0.866948 38.1153C 1.66653 38.9587 2.8272 39.1525 3.79885 38.6047L 2.64455 35.8406ZM 13.109 29.9423L 14.2633 27.1782C 13.5343 26.7674 12.6836 26.7674 11.9547 27.1782L 13.109 29.9423ZM 23.5734 35.8406L 22.4191 38.6047C 23.3907 39.1525 24.5514 38.9587 25.351 38.1153C 26.1505 37.2719 26.4283 35.9483 26.0527 34.772L 23.5734 35.8406ZM 10.6296 2.00361L 0.165241 34.772L 5.12385 36.9093L 15.5883 4.14092L 10.6296 2.00361ZM 3.79885 38.6047L 14.2633 32.7065L 11.9547 27.1782L 1.49024 33.0765L 3.79885 38.6047ZM 10.6296 4.14092L 21.0941 36.9093L 26.0527 34.772L 15.5883 2.00361L 10.6296 4.14092ZM 24.7277 33.0765L 14.2633 27.1782L 11.9547 32.7065L 22.4191 38.6047L 24.7277 33.0765Z"/>
<path id="path5_fill" d="M 0 22.0683L 7.0474 0L 14.0948 22.0683L 7.0474 18.096L 0 22.0683Z"/>
<path id="path6_fill" d="M 13.109 3.07226L 15.5883 2.00361C 15.2037 0.799224 14.2147 0 13.109 0C 12.0033 0 11.0142 0.799224 10.6296 2.00361L 13.109 3.07226ZM 2.64455 35.8406L 0.165241 34.772C -0.210417 35.9483 0.0673759 37.2719 0.866948 38.1153C 1.66653 38.9587 2.8272 39.1525 3.79885 38.6047L 2.64455 35.8406ZM 13.109 29.9423L 14.2633 27.1782C 13.5343 26.7674 12.6836 26.7674 11.9547 27.1782L 13.109 29.9423ZM 23.5734 35.8406L 22.4191 38.6047C 23.3907 39.1525 24.5514 38.9587 25.351 38.1153C 26.1505 37.2719 26.4283 35.9483 26.0527 34.772L 23.5734 35.8406ZM 10.6296 2.00361L 0.165241 34.772L 5.12385 36.9093L 15.5883 4.14092L 10.6296 2.00361ZM 3.79885 38.6047L 14.2633 32.7065L 11.9547 27.1782L 1.49024 33.0765L 3.79885 38.6047ZM 10.6296 4.14092L 21.0941 36.9093L 26.0527 34.772L 15.5883 2.00361L 10.6296 4.14092ZM 24.7277 33.0765L 14.2633 27.1782L 11.9547 32.7065L 22.4191 38.6047L 24.7277 33.0765Z"/>
<path id="path7_fill" d="M 0 22.0683L 7.0474 0L 14.0948 22.0683L 7.0474 18.096L 0 22.0683Z"/>
<path id="path8_stroke" d="M 0 -1.5C -0.828427 -1.5 -1.5 -0.828427 -1.5 0C -1.5 0.828427 -0.828427 1.5 0 1.5L 0 -1.5ZM 57.2451 1.5C 58.0735 1.5 58.7451 0.828427 58.7451 0C 58.7451 -0.828427 58.0735 -1.5 57.2451 -1.5L 57.2451 1.5ZM 0.530047 1.5C 1.35847 1.5 2.03005 0.828427 2.03005 0C 2.03005 -0.828427 1.35847 -1.5 0.530047 -1.5L 0.530047 1.5ZM 9.0108 -1.5C 8.18237 -1.5 7.5108 -0.828427 7.5108 0C 7.5108 0.828427 8.18237 1.5 9.0108 1.5L 9.0108 -1.5ZM 10.0709 1.5C 10.8993 1.5 11.5709 0.828427 11.5709 0C 11.5709 -0.828427 10.8993 -1.5 10.0709 -1.5L 10.0709 1.5ZM 18.5516 -1.5C 17.7232 -1.5 17.0516 -0.828427 17.0516 0C 17.0516 0.828427 17.7232 1.5 18.5516 1.5L 18.5516 -1.5ZM 19.6117 1.5C 20.4402 1.5 21.1117 0.828427 21.1117 0C 21.1117 -0.828427 20.4402 -1.5 19.6117 -1.5L 19.6117 1.5ZM 28.0925 -1.5C 27.2641 -1.5 26.5925 -0.828427 26.5925 0C 26.5925 0.828427 27.2641 1.5 28.0925 1.5L 28.0925 -1.5ZM 29.1526 1.5C 29.981 1.5 30.6526 0.828427 30.6526 0C 30.6526 -0.828427 29.981 -1.5 29.1526 -1.5L 29.1526 1.5ZM 37.6333 -1.5C 36.8049 -1.5 36.1333 -0.828427 36.1333 0C 36.1333 0.828427 36.8049 1.5 37.6333 1.5L 37.6333 -1.5ZM 38.6934 1.5C 39.5219 1.5 40.1934 0.828427 40.1934 0C 40.1934 -0.828427 39.5219 -1.5 38.6934 -1.5L 38.6934 1.5ZM 47.1742 -1.5C 46.3458 -1.5 45.6742 -0.828427 45.6742 0C 45.6742 0.828427 46.3458 1.5 47.1742 1.5L 47.1742 -1.5ZM 48.2343 1.5C 49.0627 1.5 49.7343 0.828427 49.7343 0C 49.7343 -0.828427 49.0627 -1.5 48.2343 -1.5L 48.2343 1.5ZM 56.715 -1.5C 55.8866 -1.5 55.215 -0.828427 55.215 0C 55.215 0.828427 55.8866 1.5 56.715 1.5L 56.715 -1.5ZM 0 1.5L 0.530047 1.5L 0.530047 -1.5L 0 -1.5L 0 1.5ZM 9.0108 1.5L 10.0709 1.5L 10.0709 -1.5L 9.0108 -1.5L 9.0108 1.5ZM 18.5516 1.5L 19.6117 1.5L 19.6117 -1.5L 18.5516 -1.5L 18.5516 1.5ZM 28.0925 1.5L 29.1526 1.5L 29.1526 -1.5L 28.0925 -1.5L 28.0925 1.5ZM 37.6333 1.5L 38.6934 1.5L 38.6934 -1.5L 37.6333 -1.5L 37.6333 1.5ZM 47.1742 1.5L 48.2343 1.5L 48.2343 -1.5L 47.1742 -1.5L 47.1742 1.5ZM 56.715 1.5L 57.2451 1.5L 57.2451 -1.5L 56.715 -1.5L 56.715 1.5Z"/>
<path id="path9_stroke" d="M 1.5 -3C 0.671573 -3 0 -2.32843 0 -1.5C 0 -0.671573 0.671573 0 1.5 0L 1.5 -3ZM 107.537 0C 108.365 0 109.037 -0.671573 109.037 -1.5C 109.037 -2.32843 108.365 -3 107.537 -3L 107.537 0ZM 1.5 0L 107.537 0L 107.537 -3L 1.5 -3L 1.5 0Z"/>
<path id="path10_stroke" d="M 1.5 -3C 0.671573 -3 0 -2.32843 0 -1.5C 0 -0.671573 0.671573 0 1.5 0L 1.5 -3ZM 164.347 0C 165.175 0 165.847 -0.671573 165.847 -1.5C 165.847 -2.32843 165.175 -3 164.347 -3L 164.347 0ZM 1.5 2.22045e-16L 164.347 2.22045e-16L 164.347 -3L 1.5 -3L 1.5 2.22045e-16Z"/>
<path id="path11_stroke" d="M 1.5 -3C 0.671573 -3 0 -2.32843 0 -1.5C 0 -0.671573 0.671573 0 1.5 0L 1.5 -3ZM 158.466 0C 159.294 0 159.966 -0.671573 159.966 -1.5C 159.966 -2.32843 159.294 -3 158.466 -3L 158.466 0ZM 1.5 0L 158.466 0L 158.466 -3L 1.5 -3L 1.5 0Z"/>
<path id="path12_stroke" d="M 1.5 -3C 0.671573 -3 0 -2.32843 0 -1.5C 0 -0.671573 0.671573 0 1.5 0L 1.5 -3ZM 85.8212 0C 86.6497 0 87.3212 -0.671573 87.3212 -1.5C 87.3212 -2.32843 86.6497 -3 85.8212 -3L 85.8212 0ZM 1.5 0L 85.8212 0L 85.8212 -3L 1.5 -3L 1.5 0Z"/>
<path id="path13_stroke" d="M 34.5007 25.5941C 34.5007 26.9748 35.62 28.0941 37.0007 28.0941C 38.3814 28.0941 39.5007 26.9748 39.5007 25.5941L 34.5007 25.5941ZM -2.5 91.094C -2.5 92.4748 -1.38072 93.5941 -5.67717e-06 93.5941C 1.38071 93.5941 2.5 92.4748 2.5 91.0941L -2.5 91.094ZM 39.5007 25.5941C 39.4976 17.7202 38.8864 11.608 37.8384 7.32369C 36.7975 3.09505 35.1374 -0.2566 32.412 -1.73595C 29.3521 -3.39679 26.1978 -2.14851 23.7195 -0.140266C 21.2069 1.89582 18.7128 5.18538 16.3382 9.27661C 6.83186 25.6555 -2.49992 57.9785 -2.5 91.094L 2.5 91.0941C 2.50007 58.7096 11.6686 27.2826 20.6626 11.7865C 22.9131 7.90898 25.044 5.22198 26.8674 3.74439C 28.7252 2.23897 29.6178 2.43647 30.0267 2.65845C 30.7701 3.06191 32.0007 4.52667 32.9833 8.51874C 33.9587 12.4551 34.5037 17.9679 34.5007 25.5941L 39.5007 25.5941Z"/>
<path id="path14_stroke" d="M 98.5 55.1249C 98.5 56.5057 99.6193 57.6249 101 57.6249C 102.381 57.6249 103.5 56.5057 103.5 55.1249L 98.5 55.1249ZM -2.5 42.6249C -2.50001 44.0056 -1.38072 45.1249 -1.23058e-05 45.1249C 1.3807 45.1249 2.49999 44.0056 2.5 42.6249L -2.5 42.6249ZM 103.5 55.1249C 103.5 22.2324 76.9653 1.80061 50.8498 -1.88852C 37.7494 -3.73911 24.4323 -1.44795 14.3201 5.83644C 4.11966 13.1844 -2.49992 25.3864 -2.5 42.6249L 2.5 42.6249C 2.50008 26.7876 8.50559 16.1872 17.2426 9.89342C 26.068 3.53603 38.0009 1.34605 50.1504 3.06232C 74.5349 6.50692 98.5 25.4008 98.5 55.1249L 103.5 55.1249Z"/>
<path id="path15_fill" d="M 14 5C 14 7.76142 10.866 10 7 10C 3.13401 10 0 7.76142 0 5C 0 2.23858 3.13401 0 7 0C 10.866 0 14 2.23858 14 5Z"/>
</defs>
</svg>
